Patient4_TMGait_0pt7_02_left_21_EMG.mot
version=1
nRows=36
nColumns=33
inDegrees=no
endheader
time	1LAddLong	2LGlutMax	3LGlutMed	4LIliopsoas	5LSemiMemb	6LBicFemLong	7LRecFem	8LVastMed	9LVastLat	10LGasMed	11LTibAnt	12lTibPost	13LPeroneusLong	14LSol	15LExtDigLong	16LFlexDigLong	17RAddLong	18RGlutMax	19RGlutMed	20RIliopsoas	21RSemiMemb	22RBicFemLong	23RRecFem	24RVastMed	25RVastLat	26RGasMed	27RTibAnt	28RTibPost	29RPeroneusLong	30RSol	31RExtDigLong	32RFlexDigLong
25.06	0.010071	-0.22385	-0.005035	-0.003662	-0.007629	-0.034637	-0.080872	0.007477	0.13046	-0.012207	0.005798	0.020752	0.045013	-0.050354	0.07309	0.037842	0.001526	0.27054	0.91995	0.026093	0.18066	-0.066376	-0.053864	-0.14145	-0.14908	-0.066223	0.17746	-0.13534	-1.077	-0.37613	-0.00351	-0.006256
25.061	0.012512	-0.17303	-0.026093	-0.002136	-0.007172	-0.058441	-0.067139	0.004883	0.12512	-0.029297	-0.004425	0.020905	0.036469	-0.080261	0.14648	0.0354	-0.015564	0.28198	0.88318	0.078583	0.062714	-0.087128	-0.00824	-0.1265	-0.18539	-0.043182	0.078888	-0.003204	-0.53162	0.24262	-0.010986	0.002289
25.062	0.01236	-0.17029	-0.046234	0.000458	-0.003967	-0.043182	-0.078583	0.006866	0.1178	-0.016785	0.003662	0.019531	0.052643	-0.11597	0.1471	0.032196	-0.024872	0.26413	0.98785	0.078583	0.032654	-0.086365	0.15808	0.13367	-0.16312	-0.048523	0.033264	0.00412	0.070038	0.60318	-0.01358	-0.001831
25.063	0.007935	-0.159	-0.05249	0.000916	0.007172	-0.014343	-0.076141	0.008087	0.12329	-0.00473	0.005035	0.020447	0.063324	-0.097504	0.15549	0.029144	-0.016479	0.27008	0.27451	0.033264	0.010223	-0.11169	0.25665	0.17899	-0.072784	-0.068207	0.050812	-0.037537	-0.2359	0.47562	0.000458	-0.004425
25.064	-0.011749	-0.1741	0.019226	-0.006561	0.003357	0.028229	-0.088654	0.005951	0.10834	-0.027313	0.002594	0.03006	0.092621	-0.068359	0.1593	0.030212	-0.019379	0.26642	-0.075226	-0.10788	-0.11154	-0.045929	-0.056	0.034637	0.046692	-0.072479	0.081482	-0.025635	-0.095978	0.44067	-0.00473	0.007935
25.065	-0.010986	-0.17929	0.037842	0.013733	-0.010223	0.022583	-0.088348	0.010681	0.12466	-0.043945	0.00351	0.014191	0.10086	-0.013885	0.18982	0.043793	-0.018768	0.1886	0.569	-0.18601	-0.11566	0.004883	0.049286	-0.044403	0.22018	-0.072479	0.063019	0.112	0.30319	0.50934	-0.003662	-0.011597
25.066	-0.003967	-0.17441	0.084534	0.012054	-0.031891	-0.016022	-0.090637	0.003052	0.12589	-0.016022	0.048523	0.019684	0.061188	0.002289	0.24979	0.031128	-0.026093	0.14191	0.68253	-0.10651	-0.099945	-0.036011	0.11261	-0.089111	0.1474	-0.07782	0.018616	0.013275	0.18875	0.52185	-0.005493	-0.011597
25.067	0.015869	-0.16861	0.067596	0.009613	-0.10101	-0.060272	-0.090332	0.00946	0.11917	0.003815	0.052185	0.010071	0.034637	-0.03479	0.27542	0.037231	-0.028992	0.10819	0.37338	0.069885	-0.052032	-0.07843	-0.008698	-0.12009	0.085754	-0.030518	0.036163	-0.040588	-0.06012	0.47791	-0.001221	-0.013123
25.068	0.026703	-0.13016	0.06073	-0.005493	-0.15823	-0.15778	-0.082245	0.001831	0.12833	-0.027771	0.001221	0.01358	0.059204	0.014343	0.20935	0.030365	-0.004578	0.1181	0.12878	0.1445	-0.037994	-0.11612	-0.08255	-0.17899	-0.002899	0.080566	0.12726	-0.027466	-0.2272	0.24368	-0.00473	-0.020142
25.069	0.032043	-0.13428	0.026398	-0.015106	-0.053864	-0.13351	-0.090027	0.005493	0.1091	-0.035858	-0.006256	0.029144	0.040131	0.008698	0.20477	0.035553	-0.003967	0.028229	-0.007782	0.074158	-0.046997	-0.06485	-0.005341	-0.093994	-0.097046	0.13168	0.20477	-0.028534	0.45349	0.043335	-0.001678	-0.012054
25.07	0.021057	-0.12405	-0.001831	-0.001831	0.064392	-0.098267	-0.084839	0.006104	0.11429	-0.081177	-0.036163	0.01236	0.048981	-0.001373	0.11688	0.026855	-0.013733	-0.02533	-0.35828	0.022278	-0.011139	0.024414	0.041199	-0.005646	-0.12878	0.10025	0.19898	0.089111	0.58426	-0.079041	0.00061	-0.014648
25.071	0.011139	-0.12558	-0.037079	0.001678	0.072479	-0.11627	-0.076904	0.003204	0.11566	-0.081177	0.000763	0.015717	0.054169	-0.013123	0.064545	0.034485	-0.024414	-0.059357	-0.089264	-0.069122	0.014191	0.03479	-0.18295	0.009766	0.005188	0.062256	0.031586	0.058136	1.0268	-0.26825	0.002594	-0.000916
25.072	0.011139	-0.11581	-0.058594	0.016479	0.066376	-0.10422	-0.081024	0.003967	0.11871	-0.042419	0.062256	0.011444	0.06073	-0.024414	-0.071869	0.004578	-0.018005	-0.1181	-0.09964	-0.007782	0.009308	0.033417	-0.41779	-0.038605	0.12131	0.053711	-0.23071	0.010223	-0.67261	-0.32044	-0.001678	0.002441
25.073	0.02182	-0.11902	-0.069275	0.012054	0.052795	-0.098419	-0.082092	0.003357	0.12543	-0.046082	0.092773	0.023193	0.068817	-0.002289	-0.089264	0.029602	0.022125	-0.13214	0.049286	0.035248	-0.002747	0.075531	-0.04837	-0.025787	0.043488	0.045776	0.049591	-0.005798	-1.9649	-0.29053	-0.005493	0.00473
25.074	0.00946	-0.10407	-0.077209	0.00946	0.002899	-0.092468	-0.087128	0.005493	0.1239	-0.065308	0.063477	0.007172	0.07843	-0.002136	-0.2092	0.024414	0.020752	-0.14954	0.13794	0.081482	-0.023804	0.03418	0.42908	-0.020447	-0.11688	0.026855	0.14725	-0.024719	-0.053864	-0.27222	-0.000763	-0.00473
25.075	0.009766	-0.10071	-0.068207	0.006714	-0.03006	-0.062561	-0.080109	0.005646	0.11505	-0.073853	0.033722	0.008392	0.070648	-0.009003	-0.17975	0.029297	-0.000916	-0.19119	0.2449	0.024261	-0.021667	0.03891	0.44617	-0.098114	-0.22446	0.006561	-0.0177	-0.10742	-0.33127	-0.30319	-0.003967	0.000458
25.076	0.002747	-0.083466	-0.053558	-0.008087	-0.029449	-0.064392	-0.061951	0.003815	0.11368	-0.11963	0.026245	0.010986	0.035706	0.028687	-0.051117	0.029449	-0.026245	-0.18829	0.16556	-0.24704	-0.060272	0.043945	0.14435	-0.15167	-0.24841	-0.008698	-0.14404	-0.33341	-0.5693	-0.31906	0.00061	-0.001068
25.077	0.001373	-0.058289	-0.052948	0.002899	-0.023651	-0.050964	-0.04837	0.007324	0.090027	-0.097351	0.010529	0.013733	0.029602	0.054474	0.041962	0.040436	-0.015259	-0.13107	0.068665	-0.50293	-0.038605	0.00885	-0.075989	-0.11368	-0.16129	-0.004272	0.037842	0.15625	0.23102	-0.36621	-0.004883	-0.003815
25.078	0.007172	-0.072937	-0.06073	-0.014038	-0.005493	-0.065308	-0.057983	0.00473	0.081329	-0.043335	0.037079	0.004425	0.050201	0.027313	0.052338	0.016937	-0.027618	-0.11261	0.13138	-0.52994	-0.01358	0.013733	-0.56732	0.10452	0.18097	0.004578	0.076904	0.21408	1.5637	-0.31784	-0.002747	-0.012512
25.079	0.014343	-0.079956	-0.077362	-0.016327	-0.025024	-0.15533	-0.069122	0.003662	0.08728	-0.043945	0.090942	0.020447	0.048676	0.025787	-0.077057	0.016174	-0.007019	-0.1564	-0.085144	-0.16327	-0.016174	-0.035858	-0.68085	0.21744	0.30441	0.00473	0.12238	0.033112	-0.37201	-0.24674	-0.003815	-0.005646
25.08	0.014191	-0.059052	-0.11322	-0.001221	-0.090027	-0.11261	-0.046234	0.007629	0.075226	-0.038452	0.091095	0.01297	0.072632	0.020294	-0.043945	0.029602	-0.002136	-0.13275	-0.13031	0.28107	-0.02533	-0.054016	-0.34698	0.30624	0.25101	0.002899	0.069733	0.006256	-0.25391	-0.32089	0.000763	-0.012817
25.081	0.023346	-0.055237	-0.06424	0.010986	-0.091248	-0.10834	-0.05127	0.005646	0.075989	-0.056152	0.080872	0.023956	0.072937	-0.000153	0.289	0.02182	-0.001831	-0.22919	0.009766	0.56747	-0.040741	-0.061035	-0.067902	0.20401	0.019073	0.015564	0.089569	-0.015106	-0.81573	-0.21973	-0.00061	-0.010376
25.082	0.028534	-0.0383	-0.034027	0.005493	-0.032349	-0.088196	-0.056305	0.009003	0.061798	-0.072021	0.023499	0.004425	0.076752	-0.010681	0.040283	0.009155	0.004425	-0.17532	-0.11246	0.66299	-0.041351	-0.036774	0.049438	0.13886	-0.021057	0.006714	0.22461	-0.004425	-0.87921	-0.094604	-0.000916	-0.015564
25.083	0.011292	-0.048981	-0.014648	-0.000458	0.03952	-0.070038	-0.045624	0.00473	0.072174	-0.063171	0.060272	0.01297	0.048218	0.043488	0.076294	0.013733	0.002747	-0.21637	-0.096741	0.44815	-0.025177	-0.028839	-0.086365	0.04776	0.084076	0.013275	0.04303	0.006409	-0.014801	-0.1561	0	-0.006104
25.084	0.023651	-0.045013	-0.040741	-0.01236	0.034943	-0.050201	-0.069427	0.005188	0.070496	-0.043488	0.09201	0.022125	0.015869	-0.037689	0.20752	0.003815	-0.00351	-0.168	0.53146	0.14893	-0.023193	-0.010834	-0.13794	0.07019	0.18005	0.018311	0.003357	-0.002594	-1.246	-0.07782	-0.001831	-0.013885
25.085	0.002899	-0.02121	-0.053406	0.014038	-0.012207	-0.056305	-0.037384	0.012054	0.065002	-0.028534	0.14358	0.011444	-0.013123	-0.062408	-0.028534	0.010834	-0.009613	-0.18662	0.13473	0.073242	-0.029144	0.011139	-0.055237	0.010223	0.14496	0.018921	0.14481	-0.010681	-1.7633	0.030212	-0.006104	-0.021362
25.086	0.007324	-0.028381	-0.081177	-0.004883	-0.034332	-0.081635	-0.029755	0.008087	0.074005	-0.02655	0.1181	0.019379	-0.001678	-0.030212	0.22736	0.003357	-0.00473	-0.19791	-0.3421	0.044556	-0.028076	0.020752	0.01709	0.020599	0.070801	0.027618	0.10239	-0.008392	2.0927	0.11948	-0.001984	-0.01709
25.087	0.013733	-0.016785	-0.074768	-0.024567	0.014954	-0.058289	-0.046539	0.007324	0.06546	-0.037231	0.089111	0.019989	0.039215	-0.007935	-0.24323	0.019836	0.008087	-0.18951	-0.065002	-0.036011	-0.027618	-0.014954	0.02182	0.030518	0.053864	0.025177	-0.007324	-0.016632	2.3235	-0.006104	-0.006866	-0.013123
25.088	0.016937	-0.032043	-0.045624	-0.011902	0.034637	-0.071564	-0.03891	0.007324	0.062103	-0.06012	-0.08194	0.017853	0.11154	0.023346	-0.18036	0.007019	0.000458	-0.17716	0.47836	-0.098419	-0.037079	-0.003967	0.072479	-0.002594	0.06958	0.017853	0.080109	-0.057068	-0.55893	-0.27695	-0.002747	-0.010071
25.089	0.014801	-0.019073	-0.057983	0.003357	0.04715	-0.10895	-0.032959	0.003662	0.07431	-0.080719	-0.20508	0.03006	0.19424	0.057678	-0.17319	0.004425	-0.010376	-0.12283	0.95001	-0.15396	-0.022125	0.053864	0.078735	-0.038605	0.12482	-0.018921	0.11139	-0.19302	-2.8578	-0.345	-0.00061	0.00061
25.09	0.020142	-0.020447	-0.089111	0.004272	0.027008	-0.08194	-0.035858	-0.000916	0.076599	-0.044861	-0.10895	0.028992	0.12009	0.032196	0.016327	0.002136	-0.010681	-0.12741	0.96893	-0.093231	-0.022888	0.058746	0.056	0.001068	0.11704	-0.014648	0.056305	0.014801	-0.68497	-0.28793	-0.002747	-0.002441
25.091	0.018158	-0.071411	-0.10742	-0.005798	0.006256	-0.052643	-0.019226	0.003357	0.077667	-0.041504	-0.12207	0.02594	0.046997	0.018463	-0.075378	0.00061	-0.014343	-0.24231	0.55618	-0.040131	-0.016479	0.031128	0.078888	-0.016937	0.11002	-0.019836	-0.075073	0.15839	1.1667	-0.18616	-0.005798	-0.003662
25.092	0.013885	-0.08255	-0.081177	0.007172	0.002289	-0.070953	-0.014801	0.005646	0.083923	-0.058746	-0.1619	0.034027	0.045013	0.027161	-0.053711	-0.006104	-0.009003	-0.28168	0.46616	-0.093689	-0.015259	0.017395	0.093231	-0.025482	0.040131	-0.039063	-0.013733	0.04364	0.82199	0.10056	-0.000458	-0.00946
25.093	0.007782	-0.074921	-0.094299	-0.001068	-0.002899	-0.054016	-0.03006	0.012512	0.073395	-0.069885	-0.085297	0.029907	0.079193	0.020294	-0.094452	-0.021362	0.007324	-0.28778	-0.12695	-0.025787	-0.024719	0.006104	0.05127	-0.13138	-0.11932	-0.046082	0.005951	0.032501	-0.2829	0.19836	-0.001678	-0.021057
25.094	0.009613	-0.072784	-0.094757	0.014648	0	-0.022888	-0.013275	0.004272	0.076599	-0.061188	-0.046234	0.026093	0.10803	-0.03418	-0.016174	-0.013885	0.008087	-0.26062	-0.55374	-0.03479	-0.004883	0.025787	0.04303	-0.085297	-0.26932	-0.049286	-0.046692	0.00946	0.26154	0.084381	-0.003967	-0.01358
25.095	-0.002136	-0.07843	-0.094757	-0.001831	-0.012512	0.031738	-0.018768	0.003967	0.063934	-0.062256	-0.004578	0.033264	0.12589	-0.12756	0.28275	-0.009308	0.016785	-0.26596	-0.15442	-0.14374	-0.008087	0.019226	0.13779	0.035706	-0.32211	-0.035706	-0.10117	-0.009155	-0.10101	0.13687	0.003052	-0.009003
